<?xml version="1.0" standalone="no"?>
<!DOCTYPE svg PUBLIC "-//W3C//DTD SVG 20010904//EN"
 "http://www.w3.org/TR/2001/REC-SVG-20010904/DTD/svg10.dtd">
<svg version="1.0" xmlns="http://www.w3.org/2000/svg"
 width="260.000000pt" height="260.000000pt" viewBox="0 0 260.000000 260.000000"
 preserveAspectRatio="xMidYMid meet">
<metadata>
Created by potrace 1.14, written by Peter Selinger 2001-2017
</metadata>
<g transform="translate(0.000000,260.000000) scale(0.100000,-0.100000)"
fill="#000000" stroke="none">
<path d="M1405 1726 c-97 -45 -395 -249 -616 -422 l-105 -82 -168 -10 c-122
-8 -174 -15 -192 -27 -54 -35 -15 -65 85 -65 32 0 73 3 90 6 59 12 31 24 -56
24 -54 0 -82 4 -73 9 21 12 268 25 255 14 -5 -5 -66 -57 -135 -115 -69 -58
-133 -115 -143 -126 -18 -19 -16 -42 2 -42 4 0 83 65 176 144 l168 143 75 7
c87 7 252 8 252 1 0 -2 -43 -57 -95 -122 -52 -64 -95 -124 -95 -133 0 -16 18
-40 31 -40 4 0 62 68 130 150 l122 150 59 0 c43 0 58 4 58 14 0 17 -22 26 -61
26 -29 0 -26 4 87 143 225 275 261 330 234 362 -17 20 -26 19 -85 -9z m15 -39
c0 -13 -60 -89 -254 -325 l-109 -132 -81 0 c-45 0 -111 -3 -148 -7 -38 -3 -68
-2 -68 3 1 16 630 473 653 474 4 0 7 -6 7 -13z"/>
<path d="M1980 1706 c-8 -7 -58 -19 -110 -25 -152 -19 -301 -62 -342 -99 -22
-19 -23 -52 -3 -52 9 0 37 11 64 24 50 26 171 59 256 72 l49 7 -138 -146
c-100 -105 -146 -147 -165 -149 -19 -2 -26 -9 -26 -26 -1 -26 -26 -59 -141
-187 -147 -164 -178 -216 -137 -232 16 -6 38 14 115 107 l36 44 0 -47 c0 -95
52 -132 182 -132 232 2 483 185 442 323 -16 53 -51 82 -128 107 l-66 21 133
33 c210 50 295 106 293 192 -3 80 -74 133 -195 145 -43 4 -70 11 -73 20 -7 18
-28 18 -46 0z m247 -89 c40 -21 48 -47 28 -86 -36 -71 -231 -141 -514 -186
l-44 -7 139 152 139 151 110 -4 c77 -2 120 -8 142 -20z m-366 -331 c77 -17
144 -48 153 -71 3 -9 6 -33 6 -53 0 -31 -9 -44 -63 -98 -123 -120 -332 -186
-442 -140 -93 39 -62 145 90 314 l57 62 66 0 c37 0 97 -7 133 -14z"/>
</g>
</svg>
